<?xml version="1.0" standalone="no"?><!DOCTYPE svg PUBLIC "-//W3C//DTD SVG 1.1//EN" "http://www.w3.org/Graphics/SVG/1.1/DTD/svg11.dtd"><svg t="1650942223740" class="icon" viewBox="0 0 1024 1024" version="1.1" xmlns="http://www.w3.org/2000/svg" p-id="3056" xmlns:xlink="http://www.w3.org/1999/xlink" width="200" height="200"><defs><style type="text/css">@font-face { font-family: feedback-iconfont; src: url("//at.alicdn.com/t/font_1031158_u69w8yhxdu.woff2?t=1630033759944") format("woff2"), url("//at.alicdn.com/t/font_1031158_u69w8yhxdu.woff?t=1630033759944") format("woff"), url("//at.alicdn.com/t/font_1031158_u69w8yhxdu.ttf?t=1630033759944") format("truetype"); }
</style></defs><path d="M512 512c55.04 0 105.728 5.418667 152.064 16.298667a62.72 62.72 0 0 0-11.690667 13.738666l-2.986666 5.333334-9.6 19.285333A640.213333 640.213333 0 0 0 512 554.666667c-101.717333 0-186.24 19.498667-254.165333 58.026666a256 256 0 0 0-129.621334 212.096L128 835.413333V896a42.666667 42.666667 0 0 0 37.674667 42.368L170.666667 938.666667h373.632c11.52 9.386667 24.277333 14.208 37.461333 14.805333l6.656-0.042667 38.272-2.346666 5.504 3.2 13.525333 27.050666H170.666667a85.333333 85.333333 0 0 1-85.333334-85.333333v-60.586667a298.666667 298.666667 0 0 1 151.466667-259.882666c70.4-39.850667 155.733333-60.970667 256.213333-63.317334L512 512z m253.610667 42.666667a21.333333 21.333333 0 0 1 19.072 11.776l23.338666 46.72c9.173333 4.266667 17.92 9.386667 26.112 15.104l52.224-3.114667a21.333333 21.333333 0 0 1 19.754667 10.666667l29.482667 51.029333a21.333333 21.333333 0 0 1-0.682667 22.442667l-28.8 43.648a172.885333 172.885333 0 0 1 0 30.165333l28.8 43.605333a21.333333 21.333333 0 0 1 0.682667 22.442667l-29.44 51.029333a21.333333 21.333333 0 0 1-19.797334 10.666667l-52.224-3.114667a170.496 170.496 0 0 1-26.069333 15.061334l-23.381333 46.762666a21.333333 21.333333 0 0 1-15.104 11.392l-3.968 0.384h-58.965334a21.333333 21.333333 0 0 1-16.981333-8.405333l-2.133333-3.413333-23.381334-46.72c-9.130667-4.266667-17.877333-9.301333-26.069333-15.061334l-52.224 3.114667a21.333333 21.333333 0 0 1-17.450667-7.381333l-2.304-3.285334-29.482666-51.029333a21.333333 21.333333 0 0 1-1.194667-18.901333l1.877333-3.541334 28.8-43.648a172.885333 172.885333 0 0 1 0-30.08l-28.8-43.690666a21.333333 21.333333 0 0 1-2.346666-18.773334l1.664-3.669333 29.482666-51.029333a21.333333 21.333333 0 0 1 15.786667-10.496l3.968-0.170667 52.224 3.114667c8.192-5.76 16.938667-10.837333 26.112-15.104l23.338667-46.72a21.333333 21.333333 0 0 1 19.114666-11.776h58.965334z m-13.226667 42.666666h-32.597333l-24.064 48.213334-13.525334 6.314666a127.573333 127.573333 0 0 0-13.269333 7.168l-6.314667 4.138667-12.202666 8.576-53.930667-3.370667-16.469333 28.245334 29.866666 45.269333-1.28 14.805333a130.218667 130.218667 0 0 0-0.469333 11.306667l0.128 5.674667 0.341333 5.674666 1.28 14.805334-29.866666 44.885333 16.256 28.416 54.186666-3.2 12.16 8.533333a128 128 0 0 0 12.8 7.936l6.741334 3.413334 13.525333 6.272 23.978667 48.298666 32.64 0.085334 24.277333-48.384 13.482667-6.272c4.565333-2.133333 8.96-4.522667 13.226666-7.168l6.314667-4.138667 12.202667-8.576 53.930666 3.2 16.298667-28.245333-29.696-45.013334 1.28-14.805333c0.341333-3.797333 0.512-7.552 0.512-11.392l-0.128-5.674667-0.384-5.674666-1.28-14.805334 29.696-45.098666-16.298667-28.245334-53.930666 3.242667-12.202667-8.533333a128 128 0 0 0-12.8-7.978667l-6.784-3.370667-13.525333-6.272L752.384 597.333333z m-16.256 85.333334a85.333333 85.333333 0 1 1 0 170.666666 85.333333 85.333333 0 0 1 0-170.666666z m0 42.666666a42.666667 42.666667 0 1 0 0 85.333334 42.666667 42.666667 0 0 0 0-85.333334zM512 42.666667a213.333333 213.333333 0 0 1 9.258667 426.453333L512 469.333333a213.333333 213.333333 0 0 1-9.258667-426.453333L512 42.666667z m0 42.666666a170.666667 170.666667 0 1 0 0 341.333334 170.666667 170.666667 0 0 0 0-341.333334z" p-id="3057" fill="#ffffff"></path></svg>